# File created by Blade
# Date/Time:  Tue Jan 27 17:27:44 2015
#---------------------------------------------------------
:version 1.10
:name HOM
:units
  mass 1.0
  length 1.000000
  angle deg
:documentation
     Acclaim Skeleton File
:root
   axis xyz
   order TX TY TZ RX RY RZ
   position 0.000000 0.000000 0.000000
   orientation 0 0 0
:bonedata
   begin
      id 1
      name Spine_dum
      direction 0.000000 1.000000 0.000000
      length 7.539951
      axis 0.0 0.0 0.0 xyz
   end
   begin
      id 2
      name LeftUpLeg_dum
      direction 1.000000 0.000000 0.000000
      length 3.345476
      axis 0.0 0.0 0.0 xyz
   end
   begin
      id 3
      name RightUpLeg_dum
      direction -1.000000 0.000000 0.000000
      length 3.345476
      axis 0.0 0.0 0.0 xyz
   end
   begin
      id 4
      name Spine
      direction 0.000000 1.000000 0.000000
      length 0.000000
      axis 0.0 0.0 0.0 xyz
      dof rx ry rz
   end
   begin
      id 5
      name Spine_dum1
      direction 0.000000 1.000000 0.000000
      length 15.093809
      axis 0.0 0.0 0.0 xyz
   end
   begin
      id 6
      name Spine_dum2
      direction 0.000000 1.000000 0.000000
      length 9.738928
      axis 0.0 0.0 0.0 xyz
   end
   begin
      id 7
      name Spine_dum3
      direction 0.000000 1.000000 0.000000
      length 9.738928
      axis 0.0 0.0 0.0 xyz
   end
   begin
      id 8
      name Head
      direction 0.000000 1.000000 0.000000
      length 4.527550
      axis 0.0 0.0 0.0 xyz
      dof rx ry rz
   end
   begin
      id 9
      name LeftShoulder
      direction 1.000000 0.000000 0.000000
      length 7.084015
      axis 0.0 0.0 -90.0 xyz
      dof rx ry rz
   end
   begin
      id 10
      name LeftArm
      direction 1.000000 0.000000 0.000000
      length 10.259319
      axis 0.0 0.0 -90.0 xyz
      dof rx ry rz
   end
   begin
      id 11
      name LeftForeArm
      direction 1.000000 0.000000 0.000000
      length 9.896984
      axis 0.0 0.0 -90.0 xyz
      dof ry rz rx
   end
   begin
      id 12
      name LeftHand
      direction 0.000000 0.000000 0.000000
      length 0.000000
      axis 0.0 0.0 -90.0 xyz
      dof rx ry rz
   end
   begin
      id 13
      name LeftHand_dum1
      direction 0.000000 0.000000 0.000000
      length 0.000000
      axis 0.0 0.0 -90.0 xyz
   end
   begin
      id 14
      name LeftHand_dum2
      direction 1.000000 0.000000 0.000000
      length 3.937000
      axis 0.0 0.0 -90.0 xyz
   end
   begin
      id 15
      name LeftHandThumb1
      direction 0.000000 0.000000 1.000000
      length 3.937000
      axis 0.0 0.0 -90.0 xyz
      dof rx rz ry
   end
   begin
      id 16
      name RightShoulder
      direction -1.000000 0.000000 0.000000
      length 7.084015
      axis 0.0 0.0 90.0 xyz
      dof rx ry rz
   end
   begin
      id 17
      name RightArm
      direction -1.000000 0.000000 0.000000
      length 10.259319
      axis 0.0 0.0 90.0 xyz
      dof rx ry rz
   end
   begin
      id 18
      name RightForeArm
      direction -1.000000 0.000000 0.000000
      length 9.896984
      axis 0.0 0.0 90.0 xyz
      dof ry rz rx
   end
   begin
      id 19
      name RightHand
      direction 0.000000 0.000000 0.000000
      length 0.000000
      axis 0.0 0.0 90.0 xyz
      dof rx ry rz
   end
   begin
      id 20
      name RightHand_dum1
      direction 0.000000 0.000000 0.000000
      length 0.000000
      axis 0.0 0.0 90.0 xyz
   end
   begin
      id 21
      name RightHand_dum2
      direction -1.000000 0.000000 0.000000
      length 3.937000
      axis 0.0 0.0 90.0 xyz
   end
   begin
      id 22
      name RightHandThumb1
      direction 0.000000 0.000000 1.000000
      length 3.937000
      axis 0.0 0.0 90.0 xyz
      dof rx rz ry
   end
   begin
      id 23
      name LeftUpLeg
      direction 0.000000 -1.000000 0.000000
      length 19.114733
      axis 0.0 0.0 0.0 xyz
      dof rx ry rz
   end
   begin
      id 24
      name LeftLeg
      direction 0.000000 -1.000000 0.000000
      length 16.045604
      axis 0.0 0.0 0.0 xyz
      dof rx ry rz
   end
   begin
      id 25
      name LeftFoot
      direction 0.000000 -0.258819 0.965926
      length 5.543155
      axis 15.0 0.0 0.0 xyz
      dof rx ry rz
   end
   begin
      id 26
      name LeftToeBase
      direction 0.000000 0.000000 1.000000
      length 2.952750
      axis 0.0 0.0 0.0 xyz
      dof rx ry rz
   end
   begin
      id 27
      name RightUpLeg
      direction 0.000000 -1.000000 0.000000
      length 19.114733
      axis 0.0 0.0 0.0 xyz
      dof rx ry rz
   end
   begin
      id 28
      name RightLeg
      direction 0.000000 -1.000000 0.000000
      length 16.045604
      axis 0.0 0.0 0.0 xyz
      dof rx ry rz
   end
   begin
      id 29
      name RightFoot
      direction 0.000000 -0.258819 0.965926
      length 5.543155
      axis 15.0 0.0 0.0 xyz
      dof rx ry rz
   end
   begin
      id 30
      name RightToeBase
      direction 0.000000 0.000000 1.000000
      length 2.952750
      axis 0.0 0.0 0.0 xyz
      dof rx ry rz
   end
:hierarchy
   begin
      root Spine_dum LeftUpLeg_dum RightUpLeg_dum
      Spine_dum Spine
      LeftUpLeg_dum LeftUpLeg
      RightUpLeg_dum RightUpLeg
      Spine Spine_dum1 Spine_dum2 Spine_dum3
      Spine_dum1 Head
      Spine_dum2 LeftShoulder
      Spine_dum3 RightShoulder
      LeftShoulder LeftArm
      LeftArm LeftForeArm
      LeftForeArm LeftHand
      LeftHand LeftHand_dum1 LeftHand_dum2
      LeftHand_dum1 LeftHandThumb1
      RightShoulder RightArm
      RightArm RightForeArm
      RightForeArm RightHand
      RightHand RightHand_dum1 RightHand_dum2
      RightHand_dum1 RightHandThumb1
      LeftUpLeg LeftLeg
      LeftLeg LeftFoot
      LeftFoot LeftToeBase
      RightUpLeg RightLeg
      RightLeg RightFoot
      RightFoot RightToeBase
   end

# File created by Blade
# Date/Time:  Tue Jan 27 17:27:32 2015
# Frame Rate: 120.000 fps
#------------------------------------------------------
:FULLY-SPECIFIED
:DEGREES
858
root 4.136578 37.131266 -0.060054 2.922060 33.915857 -3.582273
Spine 3.099381 2.215483 4.586529
Head 8.709488 -9.301492 2.788781
LeftShoulder -4.239854 -9.064268 6.581522
LeftArm -0.282606 -17.152054 -55.531935
LeftForeArm 7.234045 -0.000000 105.312997
LeftHand -14.966046 0.000000 37.648267
LeftHandThumb1 -26.253704 0.000000 33.147579
RightShoulder -8.275663 -20.936950 0.500512
RightArm 13.317712 -22.642258 60.933976
RightForeArm 186.795849 -0.000000 25.749477
RightHand 0.529283 0.000000 0.983615
RightHandThumb1 -24.326973 -0.000000 -32.862282
LeftUpLeg -7.735491 -9.487430 1.247438
LeftLeg 8.730581 -0.000000 -0.000000
LeftFoot -9.079801 -18.053766 -11.936861
LeftToeBase 14.480587 -0.000000 -0.000000
RightUpLeg -39.333798 10.333467 -0.712339
RightLeg 61.677321 -0.000000 -0.000000
RightFoot -3.146723 4.946224 4.418419
RightToeBase -0.973489 -0.000000 0.000000
859
root 4.137033 37.129504 -0.055930 2.886762 34.080856 -3.579209
Spine 3.041074 2.116847 4.633280
Head 8.718710 -9.356471 2.741957
LeftShoulder -4.194541 -9.086238 6.554382
LeftArm -0.176526 -16.954187 -55.605579
LeftForeArm 7.533248 -0.000000 105.250206
LeftHand -15.028636 -0.000000 37.724794
LeftHandThumb1 -26.253704 0.000000 33.147579
RightShoulder -8.313457 -20.987779 0.513023
RightArm 13.247375 -22.634809 60.955503
RightForeArm 186.776701 -0.000000 25.672603
RightHand 0.609446 -0.000000 0.946526
RightHandThumb1 -24.326973 -0.000000 -32.862282
LeftUpLeg -7.782643 -9.510472 1.241111
LeftLeg 8.890720 -0.000000 -0.000000
LeftFoot -9.125418 -18.183668 -11.864856
LeftToeBase 14.488681 -0.000000 -0.000000
RightUpLeg -39.698286 10.227239 -0.642102
RightLeg 63.170999 -0.000000 -0.000000
RightFoot -2.771156 4.792940 4.540117
RightToeBase -0.743807 -0.000000 0.000000
860
root 4.136517 37.128504 -0.050969 2.847027 34.216128 -3.610637
Spine 2.960357 2.049369 4.716074
Head 8.763007 -9.443451 2.650136
LeftShoulder -4.153909 -9.097342 6.496337
LeftArm -0.061063 -16.802244 -55.658151
LeftForeArm 7.592023 0.000000 105.214925
LeftHand -15.117831 -0.000000 37.927973
LeftHandThumb1 -26.253704 0.000000 33.147579
RightShoulder -8.331939 -21.035839 0.517059
RightArm 13.149986 -22.633569 60.976672
RightForeArm 186.717669 0.000000 25.609731
RightHand 0.631776 -0.000000 0.854152
RightHandThumb1 -24.326973 -0.000000 -32.862282
LeftUpLeg -7.845804 -9.503193 1.265940
LeftLeg 9.061406 -0.000000 -0.000000
LeftFoot -9.189776 -18.308791 -11.770102
LeftToeBase 14.472704 -0.000000 -0.000000
RightUpLeg -40.087667 10.198952 -0.596603
RightLeg 64.712094 -0.000000 -0.000000
RightFoot -2.362056 4.747464 4.825720
RightToeBase -0.686866 -0.000000 0.000000
861
root 4.138198 37.126992 -0.046029 2.814893 34.388186 -3.623058
Spine 2.872427 1.969701 4.784540
Head 8.808466 -9.529989 2.616606
LeftShoulder -4.089911 -9.086498 6.454553
LeftArm 0.050161 -16.648239 -55.702952
LeftForeArm 7.617114 -0.000000 105.163386
LeftHand -15.125655 -0.000000 37.935641
LeftHandThumb1 -26.253704 0.000000 33.147579
RightShoulder -8.362282 -21.091127 0.521573
RightArm 13.059824 -22.639807 60.996210
RightForeArm 186.742472 -0.000000 25.539012
RightHand 0.624215 -0.000000 0.715545
RightHandThumb1 -24.326973 -0.000000 -32.862282
LeftUpLeg -7.918351 -9.571628 1.277609
LeftLeg 9.250363 -0.000000 -0.000000
LeftFoot -9.234639 -18.390467 -11.724725
LeftToeBase 14.298141 -0.000000 -0.000000
RightUpLeg -40.501581 10.116473 -0.558288
RightLeg 66.335539 -0.000000 -0.000000
RightFoot -1.870418 4.557131 5.127337
RightToeBase -0.742134 -0.000000 0.000000
862
root 4.137164 37.128103 -0.041475 2.758999 34.546458 -3.696915
Spine 2.792859 1.912194 4.927602
Head 8.832813 -9.610261 2.522939
LeftShoulder -4.042321 -9.101586 6.401731
LeftArm 0.168569 -16.432861 -55.753502
LeftForeArm 7.928960 -0.000000 105.078674
LeftHand -15.276507 -0.000000 37.796819
LeftHandThumb1 -26.253704 0.000000 33.147579
RightShoulder -8.397149 -21.133326 0.514676
RightArm 12.974023 -22.657819 60.996636
RightForeArm 186.762975 -0.000000 25.463081
RightHand 0.717541 0.000000 0.680546
RightHandThumb1 -24.326973 -0.000000 -32.862282
LeftUpLeg -8.023004 -9.617138 1.349159
LeftLeg 9.488510 -0.000000 -0.000000
LeftFoot -9.312266 -18.556364 -11.868961
LeftToeBase 14.691376 -0.000000 -0.000000
RightUpLeg -40.908620 10.016275 -0.473167
RightLeg 67.935264 -0.000000 -0.000000
RightFoot -1.441327 4.453366 5.227802
RightToeBase -0.574644 -0.000000 0.000000
